<svg width="56" height="43" viewBox="0 0 56 43" fill="none" xmlns="http://www.w3.org/2000/svg">
<g filter="url(#filter0_dd_35_1060)">
<rect x="7.9718" y="5" width="39.9568" height="25.7414" rx="4.6104" fill="white"/>
<rect x="7.87575" y="4.90395" width="40.1489" height="25.9335" rx="4.70645" stroke="#D6DCE5" stroke-width="0.1921"/>
<path d="M27.0816 20.9559H26.1829V13.9628H28.5654C29.1692 13.9628 29.6841 14.1641 30.1054 14.5667C30.536 14.9692 30.7513 15.4607 30.7513 16.0411C30.7513 16.6356 30.536 17.127 30.1054 17.5249C29.6888 17.9228 29.1739 18.1194 28.5654 18.1194H27.0816V20.9559ZM27.0816 14.8241V17.2628H28.5841C28.9399 17.2628 29.2394 17.1411 29.4735 16.9024C29.7122 16.6636 29.8339 16.3734 29.8339 16.0458C29.8339 15.7228 29.7122 15.4373 29.4735 15.1986C29.2394 14.9505 28.9445 14.8288 28.5841 14.8288H27.0816V14.8241Z" fill="#3C4043"/>
<path d="M33.101 16.013C33.7656 16.013 34.2899 16.1909 34.6737 16.5466C35.0575 16.9024 35.2494 17.3892 35.2494 18.007V20.9559H34.3928V20.2913H34.3554C33.9856 20.8389 33.4895 21.1104 32.8716 21.1104C32.3427 21.1104 31.9027 20.9559 31.5469 20.6423C31.1912 20.3287 31.0133 19.9402 31.0133 19.4721C31.0133 18.976 31.2006 18.5828 31.575 18.2926C31.9495 17.9977 32.4503 17.8526 33.0729 17.8526C33.6065 17.8526 34.0465 17.9509 34.3882 18.1475V17.9415C34.3882 17.6279 34.2665 17.3658 34.0184 17.1458C33.7703 16.9258 33.4801 16.8181 33.1478 16.8181C32.6469 16.8181 32.2491 17.0287 31.9588 17.4547L31.1678 16.9585C31.6031 16.3266 32.2491 16.013 33.101 16.013ZM31.9401 19.4862C31.9401 19.7202 32.0384 19.9168 32.2397 20.0713C32.4363 20.2257 32.6703 20.3053 32.9371 20.3053C33.3163 20.3053 33.6533 20.1649 33.9482 19.884C34.2431 19.6032 34.3928 19.2755 34.3928 18.8964C34.112 18.6764 33.7235 18.564 33.2227 18.564C32.8576 18.564 32.5533 18.653 32.3099 18.8262C32.0618 19.0087 31.9401 19.2287 31.9401 19.4862Z" fill="#3C4043"/>
<path d="M40.1362 16.1675L37.1405 23.0576H36.2137L37.3277 20.647L35.3524 16.1675H36.3307L37.7537 19.6032H37.7724L39.1579 16.1675H40.1362Z" fill="#3C4043"/>
<path d="M23.5068 17.553C23.5068 17.26 23.4806 16.9796 23.4319 16.71H19.6649V18.2546L21.8344 18.2551C21.7464 18.7691 21.4632 19.2072 21.0293 19.4993V20.5014H22.3207C23.0748 19.8035 23.5068 18.7719 23.5068 17.553Z" fill="#4285F4"/>
<path d="M21.0298 19.4993C20.6703 19.7418 20.2074 19.8836 19.6658 19.8836C18.6197 19.8836 17.7322 19.1787 17.4144 18.2285H16.0822V19.262C16.7422 20.5717 18.0987 21.4704 19.6658 21.4704C20.7489 21.4704 21.6589 21.1142 22.3212 20.501L21.0298 19.4993Z" fill="#34A853"/>
<path d="M17.2889 17.4617C17.2889 17.1949 17.3333 16.937 17.4143 16.6945V15.661H16.0822C15.8093 16.2026 15.6558 16.8139 15.6558 17.4617C15.6558 18.1095 15.8098 18.7208 16.0822 19.2624L17.4143 18.2289C17.3333 17.9864 17.2889 17.7285 17.2889 17.4617Z" fill="#FABB05"/>
<path d="M19.6658 15.0394C20.257 15.0394 20.7864 15.243 21.2044 15.6409L22.3488 14.4974C21.6537 13.85 20.7475 13.4526 19.6658 13.4526C18.0992 13.4526 16.7422 14.3513 16.0822 15.661L17.4143 16.6945C17.7321 15.7443 18.6197 15.0394 19.6658 15.0394Z" fill="#E94235"/>
</g>
<defs>
<filter id="filter0_dd_35_1060" x="0.0956631" y="0.966105" width="55.7091" height="41.4935" filterUnits="userSpaceOnUse" color-interpolation-filters="sRGB">
<feFlood flood-opacity="0" result="BackgroundImageFix"/>
<feColorMatrix in="SourceAlpha" type="matrix" values="0 0 0 0 0 0 0 0 0 0 0 0 0 0 0 0 0 0 127 0" result="hardAlpha"/>
<feOffset dy="0.3842"/>
<feGaussianBlur stdDeviation="1.921"/>
<feColorMatrix type="matrix" values="0 0 0 0 0.717647 0 0 0 0 0.717647 0 0 0 0 0.717647 0 0 0 0.08 0"/>
<feBlend mode="normal" in2="BackgroundImageFix" result="effect1_dropShadow_35_1060"/>
<feColorMatrix in="SourceAlpha" type="matrix" values="0 0 0 0 0 0 0 0 0 0 0 0 0 0 0 0 0 0 127 0" result="hardAlpha"/>
<feOffset dy="3.842"/>
<feGaussianBlur stdDeviation="3.842"/>
<feColorMatrix type="matrix" values="0 0 0 0 0.717647 0 0 0 0 0.717647 0 0 0 0 0.717647 0 0 0 0.08 0"/>
<feBlend mode="normal" in2="effect1_dropShadow_35_1060" result="effect2_dropShadow_35_1060"/>
<feBlend mode="normal" in="SourceGraphic" in2="effect2_dropShadow_35_1060" result="shape"/>
</filter>
</defs>
</svg>
