<svg width="57" height="43" viewBox="0 0 57 43" fill="none" xmlns="http://www.w3.org/2000/svg">
<g filter="url(#filter0_dd_35_1056)">
<rect x="8.48596" y="5" width="39.9568" height="25.7414" rx="4.6104" fill="white"/>
<rect x="8.38991" y="4.90395" width="40.1489" height="25.9335" rx="4.70645" stroke="#D6DCE5" stroke-width="0.1921"/>
<path fill-rule="evenodd" clip-rule="evenodd" d="M17.2267 14.1253H14.923C14.7654 14.1253 14.6313 14.2399 14.6067 14.3955L13.675 20.3021C13.6565 20.4186 13.7468 20.5237 13.865 20.5237H14.9648C15.1224 20.5237 15.2565 20.4091 15.2811 20.2533L15.5324 18.6602C15.5566 18.5042 15.691 18.3898 15.8484 18.3898H16.5776C18.0951 18.3898 18.9709 17.6555 19.1997 16.2005C19.3027 15.564 19.2041 15.0638 18.9059 14.7134C18.5785 14.3289 17.9977 14.1253 17.2267 14.1253ZM17.4925 16.2827C17.3665 17.1092 16.7349 17.1092 16.1242 17.1092H15.7766L16.0205 15.5655C16.035 15.4723 16.1158 15.4036 16.2101 15.4036H16.3695C16.7855 15.4036 17.1779 15.4036 17.3807 15.6407C17.5015 15.7822 17.5386 15.9923 17.4925 16.2827ZM24.1129 16.2562H23.0098C22.9158 16.2562 22.8345 16.3249 22.82 16.4183L22.7713 16.7267L22.6941 16.615C22.4553 16.2683 21.9228 16.1525 21.3912 16.1525C20.1721 16.1525 19.131 17.0757 18.9282 18.3708C18.8228 19.0167 18.9726 19.6343 19.3391 20.0651C19.6753 20.4612 20.1563 20.6263 20.7286 20.6263C21.7108 20.6263 22.2556 19.9947 22.2556 19.9947L22.2063 20.3013C22.1878 20.4185 22.278 20.5235 22.3956 20.5235H23.3893C23.5474 20.5235 23.6807 20.409 23.7056 20.2531L24.3019 16.4778C24.3207 16.3617 24.2308 16.2562 24.1129 16.2562ZM22.5752 18.403C22.4687 19.0332 21.9685 19.4562 21.3306 19.4562C21.0103 19.4562 20.7541 19.3535 20.5898 19.1588C20.4268 18.9655 20.3648 18.6903 20.4167 18.3838C20.5161 17.759 21.0248 17.3223 21.653 17.3223C21.9661 17.3223 22.2208 17.4262 22.3886 17.6226C22.5566 17.821 22.6233 18.0978 22.5752 18.403ZM28.8796 16.256H29.9883C30.1435 16.256 30.2341 16.4301 30.1459 16.5574L26.4588 21.8789C26.3991 21.9651 26.3007 22.0164 26.1957 22.0164H25.0884C24.9325 22.0164 24.8415 21.8409 24.9318 21.7132L26.0798 20.0929L24.8588 16.5099C24.8166 16.3854 24.9085 16.256 25.041 16.256H26.1303C26.2719 16.256 26.3967 16.3489 26.4376 16.4843L27.0856 18.6483L28.6146 16.3964C28.6745 16.3085 28.7739 16.256 28.8796 16.256Z" fill="#253B80"/>
<path fill-rule="evenodd" clip-rule="evenodd" d="M40.8995 20.3015L41.8449 14.2869C41.8594 14.1936 41.9403 14.1248 42.0343 14.1245H43.0987C43.2162 14.1245 43.3064 14.2299 43.2879 14.3465L42.3556 20.2527C42.3312 20.4086 42.1972 20.5232 42.0393 20.5232H41.0887C40.9712 20.5232 40.8809 20.4181 40.8995 20.3015ZM33.6589 14.1248H31.3549C31.1976 14.1248 31.0635 14.2394 31.0389 14.3949L30.1072 20.3015C30.0886 20.4181 30.1789 20.5232 30.2966 20.5232H31.4788C31.5887 20.5232 31.6827 20.4431 31.6998 20.3339L31.9642 18.6597C31.9885 18.5036 32.1229 18.3892 32.2802 18.3892H33.0091C34.5269 18.3892 35.4025 17.655 35.6315 16.2C35.7348 15.5634 35.6355 15.0633 35.3375 14.7129C35.0103 14.3284 34.4299 14.1248 33.6589 14.1248ZM33.9247 16.2821C33.7991 17.1087 33.1674 17.1087 32.5564 17.1087H32.2091L32.4533 15.565C32.4678 15.4718 32.548 15.4031 32.6426 15.4031H32.8019C33.2176 15.4031 33.6105 15.4031 33.8131 15.6401C33.9341 15.7816 33.9709 15.9918 33.9247 16.2821ZM40.5445 16.2556H39.4421C39.3474 16.2556 39.2669 16.3244 39.2527 16.4177L39.204 16.7262L39.1265 16.6144C38.8877 16.2678 38.3555 16.152 37.8239 16.152C36.6048 16.152 35.564 17.0752 35.3612 18.3702C35.2561 19.0161 35.4053 19.6338 35.7718 20.0646C36.1086 20.4607 36.589 20.6257 37.1613 20.6257C38.1435 20.6257 38.6881 19.9942 38.6881 19.9942L38.639 20.3008C38.6205 20.418 38.7107 20.523 38.8291 20.523H39.8223C39.9796 20.523 40.1137 20.4085 40.1383 20.2526L40.7349 16.4773C40.7531 16.3611 40.6628 16.2556 40.5445 16.2556ZM39.0069 18.4025C38.9011 19.0326 38.4002 19.4557 37.7622 19.4557C37.4425 19.4557 37.1859 19.3529 37.0215 19.1583C36.8584 18.965 36.7971 18.6897 36.8484 18.3833C36.9483 17.7585 37.4564 17.3217 38.0846 17.3217C38.3979 17.3217 38.6524 17.4257 38.8203 17.6221C38.989 17.8205 39.0557 18.0973 39.0069 18.4025Z" fill="#179BD7"/>
</g>
<defs>
<filter id="filter0_dd_35_1056" x="0.609823" y="0.966105" width="55.7091" height="41.4935" filterUnits="userSpaceOnUse" color-interpolation-filters="sRGB">
<feFlood flood-opacity="0" result="BackgroundImageFix"/>
<feColorMatrix in="SourceAlpha" type="matrix" values="0 0 0 0 0 0 0 0 0 0 0 0 0 0 0 0 0 0 127 0" result="hardAlpha"/>
<feOffset dy="0.3842"/>
<feGaussianBlur stdDeviation="1.921"/>
<feColorMatrix type="matrix" values="0 0 0 0 0.717647 0 0 0 0 0.717647 0 0 0 0 0.717647 0 0 0 0.08 0"/>
<feBlend mode="normal" in2="BackgroundImageFix" result="effect1_dropShadow_35_1056"/>
<feColorMatrix in="SourceAlpha" type="matrix" values="0 0 0 0 0 0 0 0 0 0 0 0 0 0 0 0 0 0 127 0" result="hardAlpha"/>
<feOffset dy="3.842"/>
<feGaussianBlur stdDeviation="3.842"/>
<feColorMatrix type="matrix" values="0 0 0 0 0.717647 0 0 0 0 0.717647 0 0 0 0 0.717647 0 0 0 0.08 0"/>
<feBlend mode="normal" in2="effect1_dropShadow_35_1056" result="effect2_dropShadow_35_1056"/>
<feBlend mode="normal" in="SourceGraphic" in2="effect2_dropShadow_35_1056" result="shape"/>
</filter>
</defs>
</svg>
